# xmcd
#
# Track frame offsets:
#	150
#	17066
#	32361
#	48201
#	64837
#	79754
#	96068
#	112786
#	129913
#	148316
#	167044
#	182718
#	199234
#	214723
#	229952
#
# Disc length: 3282 seconds
#
# Revision: 1
# Processed by: cddbd v1.5.2PL0 Copyright (c) Steve Scherf et al.
# Submitted via: audiograbber 1.83.01
#
DISCID=c60cd00f
DTITLE=Bellamy Brothers - Simply The Best (With DJ Ötzi)
DYEAR=2012
DGENRE=Country
TTITLE0=Hotel Angel
TTITLE1=Like A Star
TTITLE2=Crossfire
TTITLE3=Hey Baby
TTITLE4=Let Your Love Flow
TTITLE5=I Need More Of You
TTITLE6=Feelin' The Feelin'
TTITLE7=Forget About Me
TTITLE8=You've Lost That Lovin' Feeling
TTITLE9=Islands In The Stream
TTITLE10=Sweet Caroline
TTITLE11=If I Said You Had A Beautiful Body
TTITLE12=The Gambler
TTITLE13=When You Walk In The Room
TTITLE14=I Can Help
EXTD=
EXTT0=
EXTT1=
EXTT2=
EXTT3=
EXTT4=
EXTT5=
EXTT6=
EXTT7=
EXTT8=
EXTT9=
EXTT10=
EXTT11=
EXTT12=
EXTT13=
EXTT14=
PLAYORDER=
